<?xml version="1.0" standalone="no"?>
<!DOCTYPE svg PUBLIC "-//W3C//DTD SVG 20010904//EN"
 "http://www.w3.org/TR/2001/REC-SVG-20010904/DTD/svg10.dtd">
<svg version="1.0" xmlns="http://www.w3.org/2000/svg"
 width="1024.000000pt" height="1024.000000pt" viewBox="0 0 1024.000000 1024.000000"
 preserveAspectRatio="xMidYMid meet">
<metadata>
Created by potrace 1.11, written by Peter Selinger 2001-2013
</metadata>
<g transform="translate(0.000000,1024.000000) scale(0.100000,-0.100000)"
fill="#000000" stroke="none">
<path d="M8477 7024 c-1 -1 -42 -4 -92 -8 -49 -3 -100 -8 -111 -10 -12 -2 -39
-7 -60 -11 -146 -23 -335 -85 -484 -160 -349 -175 -624 -439 -809 -778 -78
-142 -153 -345 -187 -502 -16 -77 -19 -95 -33 -195 -10 -72 -8 -363 3 -450 27
-211 113 -481 214 -670 62 -117 60 -114 121 -205 193 -286 439 -501 746 -650
187 -91 356 -143 530 -162 139 -16 442 -9 545 12 14 3 41 8 60 11 86 13 350
90 367 107 3 4 14 7 23 7 29 0 267 127 362 193 183 128 328 288 411 456 l37
74 -137 81 c-76 45 -180 106 -231 136 -51 30 -105 62 -120 71 -124 74 -223
131 -225 128 -2 -2 -11 -22 -21 -44 -84 -185 -274 -344 -500 -420 -197 -65
-452 -65 -636 0 -123 44 -265 140 -365 247 -332 354 -407 979 -174 1441 67
134 123 207 229 301 127 112 268 182 430 211 96 17 283 17 385 -1 272 -47 501
-203 617 -422 18 -35 38 -63 43 -63 9 1 382 257 591 406 l72 51 -37 60 c-128
213 -293 376 -523 518 -197 122 -476 211 -728 232 -79 6 -308 12 -313 8z"/>
<path d="M120 7000 c-5 -3 -8 -849 -7 -1880 l2 -1875 433 -2 432 -2 0 102 c1
56 2 329 3 607 l2 504 282 1 281 0 98 -165 c54 -91 172 -289 261 -440 90 -151
167 -282 172 -290 5 -8 50 -83 100 -167 l91 -152 489 0 490 0 -48 82 c-26 45
-210 357 -409 694 -199 337 -362 616 -361 620 0 4 32 28 72 53 39 25 115 88
168 140 175 173 284 376 340 635 17 79 21 134 21 260 1 175 -10 242 -63 398
-51 153 -147 324 -244 437 -211 243 -499 405 -775 436 -73 8 -1817 12 -1830 4z
m1680 -764 c143 -20 290 -171 335 -344 29 -115 13 -362 -26 -406 -5 -6 -9 -16
-9 -23 0 -21 -62 -113 -106 -157 -22 -22 -64 -51 -94 -65 l-55 -26 -432 -1
-433 -2 1 514 0 513 37 3 c63 5 739 0 782 -6z"/>
<path d="M3275 7000 c-1 -3 56 -90 127 -195 72 -104 181 -264 243 -355 195
-287 356 -522 410 -600 28 -41 89 -131 136 -200 46 -69 86 -127 89 -130 3 -3
48 -68 100 -145 52 -77 115 -171 141 -209 l48 -68 -22 -34 c-23 -35 -119 -176
-264 -389 -49 -71 -208 -305 -353 -520 -146 -214 -288 -424 -317 -465 -56 -81
-257 -377 -286 -421 l-18 -27 473 2 472 1 386 617 c212 340 387 618 390 618 4
0 281 -437 345 -544 11 -18 106 -169 210 -335 105 -166 197 -314 206 -329 l16
-27 466 -2 c257 -1 467 1 467 5 0 4 -17 32 -38 62 -74 107 -190 277 -297 435
-239 352 -321 474 -380 560 -34 50 -140 205 -235 345 -95 140 -202 297 -237
348 -36 52 -62 99 -60 105 3 7 54 83 114 169 59 87 142 207 183 268 41 61 140
206 220 323 223 326 337 492 418 612 42 61 94 137 117 170 146 211 235 344
235 352 0 4 -207 8 -460 8 -394 0 -461 -2 -474 -15 -7 -8 -111 -170 -231 -360
-119 -190 -227 -361 -240 -380 -32 -49 -94 -148 -215 -340 -57 -91 -110 -173
-118 -182 -13 -16 -18 -11 -60 55 -25 39 -64 101 -87 137 -23 36 -187 295
-364 575 l-323 510 -465 0 c-256 0 -466 -2 -468 -5z"/>
</g>
</svg>
