<?xml version="1.0" standalone="no"?>
<!DOCTYPE svg PUBLIC "-//W3C//DTD SVG 20010904//EN"
 "http://www.w3.org/TR/2001/REC-SVG-20010904/DTD/svg10.dtd">
<svg version="1.0" xmlns="http://www.w3.org/2000/svg"
 width="1024.000000pt" height="1024.000000pt" viewBox="0 0 1024.000000 1024.000000"
 preserveAspectRatio="xMidYMid meet">
<metadata>
Created by potrace 1.11, written by Peter Selinger 2001-2013
</metadata>
<g transform="translate(0.000000,1024.000000) scale(0.100000,-0.100000)"
fill="#000000" stroke="none">
<path d="M0 5120 l0 -5120 5120 0 5120 0 0 5120 0 5120 -5120 0 -5120 0 0
-5120z m8580 1730 c139 -23 295 -64 415 -109 106 -39 195 -79 195 -88 0 -5
-250 -654 -255 -660 -1 -2 -46 17 -101 41 -236 103 -413 146 -604 146 -186 0
-292 -41 -411 -159 -64 -64 -85 -93 -127 -181 -86 -177 -115 -326 -114 -595 0
-344 71 -576 221 -726 106 -105 234 -155 421 -166 189 -10 394 30 655 127 77
28 150 54 163 57 l22 5 0 -355 0 -356 -102 -39 c-224 -86 -422 -122 -706 -129
-288 -8 -475 16 -678 88 -492 173 -782 583 -856 1208 -17 151 -14 486 6 616
86 551 339 930 761 1143 152 76 342 130 530 152 127 14 422 4 565 -20z"/>
</g>
</svg>
