<?xml version="1.0" encoding="utf-8"?>
<!-- Generator: Adobe Illustrator 23.0.1, SVG Export Plug-In . SVG Version: 6.00 Build 0)  -->
<svg version="1.1" id="Layer_1" xmlns="http://www.w3.org/2000/svg" xmlns:xlink="http://www.w3.org/1999/xlink" x="0px" y="0px"
	 viewBox="0 0 300 30" style="enable-background:new 0 0 300 30;" xml:space="preserve">
<style type="text/css">
	.st0{fill:#030303;}
	.st1{fill:#0C0C0C;}
	.st2{fill:#0D0D0D;}
	.st3{fill:#060606;}
	.st4{fill:#EBEBEB;}
	.st5{fill:#111111;}
	.st6{fill:#1C1C1C;}
	.st7{fill:#232323;}
	.st8{fill:#373737;}
	.st9{fill:#3E3E3E;}
	.st10{fill:#323232;}
	.st11{fill:#A6A6A6;}
	.st12{fill:#676767;}
	.st13{fill:#C1C1C1;}
	.st14{fill:#0A0A0A;}
	.st15{fill:#6F6F6F;}
	.st16{fill:#343434;}
	.st17{fill:#212121;}
	.st18{fill:#6A6A6A;}
	.st19{fill:#EFEFEF;}
	.st20{fill:#B6B6B6;}
	.st21{fill:#202020;}
	.st22{fill:#747474;}
	.st23{fill:#8E8E8E;}
	.st24{fill:#303030;}
	.st25{fill:#3C3C3C;}
	.st26{fill:#7F7F7F;}
	.st27{fill:#DADADA;}
	.st28{fill:#B8B8B8;}
	.st29{fill:#ABABAB;}
	.st30{fill:#393939;}
	.st31{fill:#CBCBCB;}
	.st32{fill:#1F1F1F;}
	.st33{fill:#D3D3D3;}
	.st34{fill:#B9B9B9;}
	.st35{fill:#F6F6F6;}
	.st36{fill:#7C7C7C;}
	.st37{fill:#D4D4D4;}
	.st38{fill:#E6E6E6;}
	.st39{fill:#525252;}
	.st40{fill:#4B4B4B;}
	.st41{fill:#090909;}
	.st42{fill:#E2E2E2;}
	.st43{fill:#AEAEAE;}
	.st44{fill:#282828;}
	.st45{fill:#B0B0B0;}
	.st46{fill:#959595;}
	.st47{fill:#F1F1F1;}
	.st48{fill:#E3E3E3;}
	.st49{fill:#7A7A7A;}
</style>
<path class="st0" d="M76.9,23.4c-20.3,2-40.6,1.8-61,2.1c-4.6,0.1-8.2-1.9-10.1-6.2c-1.4-3.1,0.2-6.3,3.6-6.7
	c3.3-0.4,6.6-0.7,9.9-0.5c12.3,0.7,24.6-0.5,36.8-1.1c4.5,0.2,8.8,0.4,12.9,2.9c2.2,1.3,5.2,1,7.9,0.8c3.2-0.2,4.9,1.8,6.7,3.7
	c1.7,1.9,0.7,4.3-1.8,4.8C80.1,23.4,78.4,22.9,76.9,23.4z"/>
<path class="st1" d="M76.9,23.4c0.5-0.2,1-0.4,1.5-0.5c1.5-0.4,4.6,0.2,4.2-1.8c-0.4-1.9-2.2-4.5-5.3-4.4c-2.5,0-5,0-7.5-0.2
	c-1-0.1-2.5-0.3-2.9-0.9c-2.6-4.1-6.8-3.9-10.7-4.7c12.3-0.3,24.5-0.7,36.8-1c2.5-0.4,5-1,7.4,0.4c-1.2,1.7-3,0.6-4.5,1.1
	c-0.2,0-0.4,0-0.6,0c-0.3-0.1-0.2-0.1,0.2,0.1c2.6,0.1,5.2-0.8,7.8-1c2.2,0.4,4.4,0.8,6.6,0.7c3.2,0,6.4,0,9.6-0.8
	c1.5-0.1,3.1-0.1,4.6-0.3c0.9-0.1,1.7-0.4,2.6-0.2c1.5,0.5,3.1,0.6,4.7,0.3c2.4-0.4,4.8-1.3,7.1,0.8c0.7,0.7,2,0.2,2.9-0.5
	c0.7-0.2,1.3-0.2,1.8,0.3c0.9,1.7,0.1,2.9-1.2,4c-1.4,0.5-2.8,0.8-4.3,0.8c-4.2-1.1-8.5,0.5-12.7-0.5c-0.8-0.3-1.5-0.2-2,0.2
	c0.1,0,0,0,0,0c0.7-0.5,1.5-0.4,2.2-0.1c5.9-0.4,11.9,1.2,17.8-0.5c0.6-0.2,1.2-0.2,1.8-0.2c1.6,0,3.2,0,4.8,0
	c2.8,0.4,5.6,1,8.3-0.7c1.6-0.9,3.3,0.4,4.9,0.6c3.8,0.3,7.6-0.1,11.3,0.3c1,0.2,1.9,0.2,2.9,0.2c2,0.9,4.6,0.2,6.2,2.2
	c0.6,0.7,1.7,1.3,1.1,2.5c-3.5,1.4-7.1,0.7-10.7,0.7c-14.5,0-29,1-43.5,1.1c-9.5,0-19,1-28.6,1C93.3,22.2,85.1,23,76.9,23.4z"/>
<path class="st2" d="M278.8,18.6c-29.4,0.1-58.8,1.4-88.2,0.8c-0.5-0.2-1.1-0.4-1.3-0.9c-0.2-1-0.1-1.9,0.4-2.7c1.2-1,2-2.2,3.2-3.2
	c0.4-0.1,0.7-0.2,1.1-0.1c1.3,0.8,2.6,1.6,4.1,0.1c1.1-1,2.7-0.5,4.1-0.8c4.1-1.4,8.6-1.1,12.6-0.8c5.1,0.3,10.2-0.1,15.2,0.2
	c0.4,0,0.8,0.1,1.3,0.1c3.1,0.9,6.3,0.5,9.4-0.1c4.1,0.6,8.1-0.7,12.1-0.8c4.8,1.6,9.8-0.3,14.6,0.5c2.1,3.7,6.5,2.5,9.4,4.5
	C278.1,16.2,279.4,16.7,278.8,18.6z"/>
<path class="st3" d="M278.8,18.6c-2.7-0.6-4.4-3.7-8.3-1.8c-2.3,1.1-2.7-2.2-2.1-4.4c0.2-0.9,0.8-1.5,1.6-1.8
	c1.4-0.3,2.8-0.1,4.1-0.4c0.7-0.1,1.4-0.2,2.1-0.4c0.3-0.1,0.6-0.1,0.8-0.2c-0.1,0,0.2,0,0.1,0c-0.1,0,0-0.1-0.1-0.1
	c-1.4-0.5-2.8-0.5-4.2-0.6c-0.8,0-1.6,0.1-2.4,0.2c-0.7,0.1-1.3-0.1-1.9-0.1c-3.2,0.5-6.3-0.3-9.5-0.2c-1.1,0-2.3,0.1-3.4-0.2
	C254.6,8,253.6,7.4,254,6c10.1-0.8,20.2-0.4,30.3-1.6c7.2-0.9,9.9,4.8,9.8,10.8c0,1.7-0.8,2.7-2.6,2.8
	C287.3,18.1,283.1,18.3,278.8,18.6z"/>
<path class="st4" d="M220.2,6.8c0.3,0,0.7,0,1,0c1.1,1.1,2.5,0.6,3.9,0.7c5.7-0.1,11.4-1.4,17.1-0.2c0.4,0.6,0.5,1.2,0.3,1.8
	c-0.5,1.1-1.6,1.2-2.5,1.7c-2,1.3-4.5,1-6.6,1.9c-1,0-1.9,0.2-2.8-0.3l0,0.1c-0.1-0.3-0.3-0.6-0.6-0.8c-0.6-0.5-1.3-0.7-2-0.7
	c-3.9,0.4-7.8,0.7-11.7,0.1c-2.5-0.4-4.8,2.1-7.2,1.1c-2.9-1.2-5.7-0.2-8.6-0.2c-1.2,0-2.3,0.7-3.5,0.5c-2.3-1.6-5-0.9-7.4-1.4
	c-0.9-0.1-1.8-0.2-2.4-1.1c-0.2-1.2,0.4-1.8,1.5-2.1c9.2,0,18.3,0,27.5-0.5C217.5,6.9,219,7.4,220.2,6.8z"/>
<path class="st5" d="M119.4,11.5c-3.2,1.9-6.6,0.4-9.9,0.7c-2.3-1.3-4.9-0.2-7.2-1c-0.7-0.1-1.6,0.3-2.1-0.5
	c-2.4-1.1-4.9-0.4-7.3-0.7c6.7-1.5,13.4-0.4,20-0.3c3.6,0,6.8-2.1,10.4-1.1c0.4,0.8,0.1,1.5-0.6,2C121.7,11,120.2,10.3,119.4,11.5z"
	/>
<path class="st6" d="M189.9,18.7c0.2,0.2,0.5,0.4,0.7,0.6c-2.1,0-4.3,0-6.4,0.1c-2.1-1.7-4.8-2.2-7.3-3.3c-0.9-0.5-1.9-0.7-2.1-1.9
	c0-0.9,0.4-1.6,1.1-2.1c0.5-0.3,1.1-0.6,1.8-0.6c4,0.5,7,3.5,10.8,4.5C189.6,16.4,189.5,17.8,189.9,18.7z"/>
<path class="st5" d="M217.4,7.6C209.2,9,200.9,8,192.7,8.3c-1.5,0.1-2.9,0.1-4.4,0.2c-1.8,0.6-3.6,2.6-5.6,0.3
	c-0.2-0.4-0.2-0.8,0-1.2c10.7-0.3,21.4-0.5,32.1-0.8C215.5,7.4,216.7,6.7,217.4,7.6z"/>
<path class="st7" d="M242,7.6c-5.9,0.2-11.7,0.4-17.6,0.6c-0.5-0.5-2,0.2-1.6-1.4c7.7-0.2,15.4-0.5,23.1-0.7
	c0.2,0.2,0.3,0.4,0.2,0.6c0,0.2-0.1,0.4-0.1,0.4c-0.8,1-2,0.8-3.1,0.9C242.6,7.9,242.3,7.8,242,7.6z"/>
<path class="st8" d="M122.5,9.9c0.3-0.5,0.5-0.9,0.8-1.4c4.7,0.6,9.4-0.2,14.1-0.2c0.7,0,1.7-0.4,1.7,0.9c0,0.3-0.8,0.6-1.2,0.9
	c-3.7,1-7.7,0.1-11.3,1.5c-0.8,0-1.7-0.1-2.5-0.1C123.6,10.8,122.8,10.6,122.5,9.9z"/>
<path class="st9" d="M182.7,7.6c0,0.2,0,0.4,0,0.6c-1.7,2.1-4.3,2.4-6.6,2c-2.9-0.5-5.7,0-8.6,0.1c-0.5,0-0.9,0-1.4-0.1
	c-2.5-0.5-4.9-0.6-7.4-0.7c-1.3,0-2.7,0.1-3.5-1.3C164.4,7.2,173.5,7.5,182.7,7.6z"/>
<path class="st10" d="M155.2,8.2c3.8,0.5,7.7-0.5,11.4,0.8c-1.4,2.2-3.8,1-5.7,1.7c-4.6,0.7-9.1,0.5-13.6-0.2
	c-0.9-0.2-1.8-0.2-2.4-1c-0.3-0.4-0.2-0.8,0-1.2C148.4,6.7,151.8,8.7,155.2,8.2z"/>
<path class="st11" d="M126.5,11.5c1.8-2.7,4.6-1.1,7-1.5c1.4-0.2,2.9,0,4.4,0c0.7,0.2,1.5,0.4,2.2,0.6c0.4-0.3,0.7-0.2,1,0.1
	C136.2,11.4,131.4,11.4,126.5,11.5z"/>
<path class="st12" d="M246,6.7c-0.1-0.2-0.1-0.4-0.1-0.6c2.7,0,5.4-0.1,8.1-0.1c0.6,0.5,1.1,0.9,1.7,1.4c-1,1.9-2.9,1.2-4.4,1.4
	c-1.1,0-2.3,0.1-3.4-0.2C246.9,8.2,246.3,7.6,246,6.7z"/>
<path class="st13" d="M141,10.7c-0.3,0-0.6-0.1-1-0.1c0.6-0.5,1.1-0.9,1.7-1.3c1-0.9,2.1-0.6,3.3-0.2c0.8,0.1,1.6,0.2,2.4,0.3
	c0.5,0.6,0.5,1.2,0,1.8c-1.2,1-2.5,0.8-3.8,0.4c-0.4-0.2-0.8-0.4-1.1-0.7C142,10.8,141.5,10.8,141,10.7z"/>
<path class="st14" d="M217.4,7.6c-0.9-0.2-1.7-0.5-2.6-0.7c1.8,0,3.6-0.1,5.5-0.1C219.6,8,218.4,7.6,217.4,7.6z"/>
<path class="st15" d="M222.8,6.8c0.5,0.5,1.1,0.9,1.6,1.4c-1.2-0.1-2.7,0.5-3.1-1.4C221.8,6.8,222.3,6.8,222.8,6.8z"/>
<path class="st16" d="M145,9c-1.1,0.1-2.2,0.1-3.3,0.2c0.5-2.1,2.1-1,3.2-1C145,8.5,145,8.8,145,9z"/>
<path class="st7" d="M173.9,16.3c-5.7,0.9-11.3-2-17.1-0.2c-2.5,0.8-5.3,0.7-7.8-0.5c-0.3-0.3-0.4-0.6-0.3-1c1-1.3,2.6-1.5,3.8-2.5
	c1-0.6,2.2-0.6,3.3-0.9c2.8-1.1,5.6-0.4,8.3,0.5c2.4,0.4,4.8,0.2,7.3,0.3c1.7,0,3.1,0.4,3.1,2.5C174.7,15.1,174.4,15.7,173.9,16.3z"
	/>
<path class="st17" d="M124.7,14.1c2.1,0.1,4.2,0.5,6.3-0.5c2.2-1,4.1,0.2,6,1.2c2,1.3,4.6-1.5,6.4,1c-6.4,1.2-12.9,1.5-19.3,0
	C123.9,15.1,124.3,14.5,124.7,14.1z"/>
<path class="st18" d="M149.1,14.7c0,0.3-0.1,0.6-0.1,0.9c-1.4,0.7-2.8-0.1-4.1-0.1c-1.1-1-3.2,0.8-3.9-1.4c0.5-1.1,1-2.1,1.5-3.2
	c0.4,0,0.8,0.1,1.2,0.1c1.7,0.3,3.5,0.5,4.9-0.8c1.7,0.5,5.1-1.1,3.9,3.1c-0.8,1-1.9,0.7-2.9,0.7c-0.4,0-0.8-0.1-1.2-0.2
	C148.6,14,149,14.2,149.1,14.7z"/>
<path class="st19" d="M102.5,10.8c2.2,0,4.4-0.1,6.6,0c1.5,0,0.8,0.8,0.3,1.4c-2.3-0.4-4.7,0.4-6.9-0.7C102,11.2,102,11,102.5,10.8z
	"/>
<path class="st20" d="M122.5,9.9c0.9,0.1,2.3-0.2,1.5,1.6c-1.6,0-3.1,0.1-4.7,0.1c-0.5-0.8-2.2,0-2-1.3c0.1-0.8,1.3-0.4,2.1-0.4
	C120.4,9.8,121.5,9.8,122.5,9.9z"/>
<path class="st21" d="M99.3,16.4c-1.5-0.2-3.3,0.4-3.7-1.6c-0.1-0.7,0.7-0.6,1.2-0.5c1.6,0.5,3.2,1,4.8,1.5
	C100.9,16.8,99.9,15.9,99.3,16.4z"/>
<path class="st11" d="M102.5,10.8c0,0.2,0,0.5,0,0.7c-2.7-0.2-5.3,0.8-8,0c-0.2-0.2-0.4-0.3-0.6-0.5c0.3,0,0.5-0.1,0.8-0.1
	c1.8-0.1,3.6-0.2,5.4-0.3C100.9,10.6,101.7,10.7,102.5,10.8z"/>
<path class="st22" d="M124.7,14.1c0.1,0.7-0.1,1.3-0.6,1.7c-1.3,0.4-2.7,0.5-3.8-0.4c-0.2-0.1-0.3-0.2-0.3-0.3
	c0.1-0.1,0.1-0.2,0.2-0.2C121.7,14.6,123.2,14.3,124.7,14.1z"/>
<path class="st23" d="M141,14.1c1.3,0.5,2.6,0.9,3.9,1.4c-0.5,0.1-1,0.2-1.5,0.3c-2.1-0.5-4.5,0.8-6.4-1
	C138.4,14.5,139.7,14.3,141,14.1z"/>
<path class="st24" d="M94.7,10.9c-0.1,0.2-0.1,0.4-0.2,0.7c-1.3,0.3-2.7,1.1-4.1,0.4c-0.1-0.1-0.2-0.6-0.2-0.6
	C91.7,10.4,93.2,10.8,94.7,10.9z"/>
<path class="st25" d="M120.2,14.8c0,0.2,0.1,0.3,0.1,0.5c-0.5,0.2-0.9,0.5-1.4,0.7c-0.6,0.2-1.5,0.4-1.7-0.2c-0.3-1.2,0.9-1,1.5-1.1
	C119.2,14.5,119.7,14.8,120.2,14.8z"/>
<path class="st26" d="M173.9,16.3c0-0.5,0-1,0-1.5c0.5-0.6,1-0.6,1.6-0.2c0.5,0.5,0.9,1,1.4,1.6C176,16.2,174.9,16.2,173.9,16.3z"/>
<path class="st27" d="M242,7.6c0.3-0.1,0.6-0.1,0.9-0.2c0.2,0,0.4,0.1,0.5,0.1c1.8,0.7,3.7-0.1,5.5,0.6c2.1,0.3,4.3,0.1,6.5,0.2
	c4.7,0.7,9.3-0.5,13.9-0.7c0.5,0,1-0.1,1.6-0.1c0.7,0.7,1.9,0.7,2.4,1.7c0.3,0.8,0.3,1.6-0.3,2.3c-0.6,0.6-1.6,0.3-2.2,0.8
	c-0.8,0-1.5,0.1-2.3,0.1c-5.2-0.8-10.5,0.8-15.7-0.7c-2.3,1.5-4.7,1.2-7.2,0.7c-1.3-0.5-2.6-1.1-3.7-2c-0.2-0.4-0.1-0.8,0.1-1.1
	C242,8.6,242,8.1,242,7.6z"/>
<path class="st28" d="M197.1,11.4c4.2-0.5,8.3-1.1,12.7-0.5c4.1,0.5,8.8-1.1,13.2-1.4c2-0.1,4-0.3,6-0.4c1.3,0.3,1.5,1.4,1.6,2.4
	c0,0.3,0,0.6,0,0.9c-8.2,0.9-16.4,0-24.6-0.2c-1.4,0-2.6,0.2-3.8,0.7c-1.6-0.8-3.4,0.3-4.9-0.4C196.9,12.2,196.9,11.8,197.1,11.4z"
	/>
<path class="st29" d="M197.1,11.4c0,0.2,0,0.5,0,0.7c-0.7,1.6-1.9,1.4-3.2,1c-0.3,0-0.5,0-0.8,0c-3.1,0.9-6.3,1.1-9.5,1.1
	c-1-0.2-2-0.7-3.1-0.8c-1.7-2.4-0.4-3.6,1.9-4.2c1.1-0.3,2.3,0.3,3.5,0c1.3,0.3,2.4,2,4,0.8C192.3,10.3,195.1,9,197.1,11.4z"/>
<path class="st30" d="M180.3,13c1.1,0.1,2.2,0.2,3.3,0.3c1.3,0.9,2.6,0,3.8,0.1c1.7,0.1,4.5-0.4,3.4,3c-0.3,0.8-0.5,1.6-0.8,2.4
	c-3.8-2.2-7.9-4.1-12.1-5.5C178.6,12.4,179.4,12.4,180.3,13z"/>
<path class="st31" d="M242,9.1c0,0.2,0,0.5,0,0.7c0.7,1.1,2.2,0.7,3.1,1.6c2.5,1,5.1,0.7,7.6,0.2c-1.5,2.4-3.8,1.1-5.7,1.3
	c-1.9,0.2-3.9,0.1-5.8,0.1c-1-0.5-2.6,0.1-3-1.6c0.1-0.8,0-1.6,0.6-2.3C239.9,9.1,240.9,9.1,242,9.1z"/>
<path class="st32" d="M190.7,16.3c-0.9-1.8-2.5-2.4-4.3-2.1c-1.1,0.1-2.1,0-2.8-1c3.2-0.4,6.3-1.4,9.5-0.2
	C194.1,15.5,192.7,16.1,190.7,16.3z"/>
<path class="st32" d="M193.9,13.1c1-0.7,2.1-1,3.2-1c1.7,0.4,3.5-0.2,5,0.9c-1.2,0.2-2.6,0-3.6,1.1
	C196.3,16.7,195.1,15.1,193.9,13.1z"/>
<path class="st33" d="M238.5,11.4c0.9,0.5,1.7,1.1,2.6,1.6c-3.5-0.2-7,0.5-10.5-0.6c1.1-0.1,2.2-0.2,3.4-0.3
	C235.5,11.6,236.9,11,238.5,11.4z"/>
<path class="st34" d="M272.4,11.3c0-0.7,0-1.4,0-2.1c-0.1-0.7,0.3-1.2,0.9-1.6c2.9,0.3,5.8,0.6,8.6,1c0.5,0.1,0.5,0.8,0.2,1.3
	c-1.1,1.5-2.7,0.2-4,0.7c-0.3,0-0.5,0-0.8,0c-0.4-0.4,0.1,0.1-0.2-0.2c0.1,0.1,0.2,0.2,0.2,0.2c-0.6,0.9-1.6,0.7-2.5,1
	C274,11.9,273.1,12.3,272.4,11.3z"/>
<path class="st31" d="M269.2,7.7c-4.5,0.8-8.9,2.8-13.7,1.4c0.3-2.1,2.3-0.6,3.2-1.4C262.3,7.7,265.7,7.7,269.2,7.7z"/>
<path class="st35" d="M258.8,7.6c-1.1,0.5-2.1,0.9-3.2,1.4c-2.4-0.1-4.8,0.5-7.1-0.7c0.6-0.9,1.6-0.2,2.3-0.6
	c1.6-0.1,3.3-0.3,4.9-0.4C256.7,7.4,257.7,7.5,258.8,7.6z"/>
<path class="st2" d="M278.1,10.7c1.2-1.3,2.6-0.8,4-0.7C281.6,12.4,281.6,12.4,278.1,10.7z"/>
<path class="st36" d="M273.3,7.6c-0.3,0.5-0.6,1-0.9,1.6c-0.9-0.2-1.4-0.7-1.6-1.6C271.6,7.6,272.5,7.6,273.3,7.6z"/>
<path class="st2" d="M272.4,11.3c0.8,0.1,1.6,0.3,2.4,0.4c-1.3,0.7-2.7,0.6-4.1,0.6C271.3,12,271.8,11.6,272.4,11.3z"/>
<path class="st37" d="M180.3,13c-0.8,0.1-1.6,0.2-2.4,0.2c-0.5,0-1,0-1.6,0c-2.2,0.1-3.9-1.9-6.2-1.3c-1.1-0.1-2.3,0.2-3.3-0.5
	c-0.3-0.3-0.4-0.6-0.5-1c0.1-0.7,0.6-0.9,1.1-1.2c5-1.1,10.2-0.2,15.3-1c1.8,0.8,3.7-0.1,5.6,0.3c-0.3,0.4-0.5,0.9-0.8,1.3
	c-0.1,0.4-0.4,0.5-0.7,0.2C183.9,9.5,181.6,10.2,180.3,13z"/>
<path class="st38" d="M238.5,11.4c-1.4,0.6-2.9,1-4.5,0.8c0.9-2.2,3.7-1.2,4.8-3C238.7,9.9,238.6,10.6,238.5,11.4z"/>
<path class="st38" d="M230.6,11.6c-0.5-0.8-1.1-1.6-1.6-2.4c0.4,0,0.8-0.1,1.2,0c0.9,0.1,2.3-0.3,2.5,0.6
	C233.1,11.1,231.2,10.8,230.6,11.6z"/>
<path class="st39" d="M186.8,10c0.3,0,0.5-0.1,0.7-0.2c0.8,0.1,1.5,0.1,2.3,0.2C188.8,11.2,187.8,11.7,186.8,10z"/>
<path class="st40" d="M169.9,10.6c2.5,0,5-0.2,6.3,2.6c-0.2,0.5-0.5,0.9-0.7,1.4c-0.5,0.1-1.1,0.1-1.6,0.2c-0.6-1.5-1.9-1.5-3.2-1.6
	c-0.7-0.6-1.7-0.8-2-1.9C168.9,10.7,169.2,10.3,169.9,10.6z"/>
<path class="st41" d="M246,6.7c0.5,0.3,1,0.5,1.5,0.8c-1.6,1.2-3.2,0.9-4.8,0.2c0,0,0.1-0.2,0.1-0.2C243.9,7.2,245,6.9,246,6.7z"/>
<path class="st42" d="M167.4,9.2c-0.3,0.4-0.5,0.9-0.8,1.3c-0.6,1.4-1.8,1.3-3,1.3c-1.4-0.1-2.7-0.4-4.1-0.9c-0.9-1-0.1-1.4,0.7-1.7
	c2.1-0.1,4.2-0.2,6.4-0.3C166.9,9,167.1,9.1,167.4,9.2z"/>
<path class="st43" d="M160.3,9.3c-0.2,0.4-0.4,0.8-0.7,1.2c-0.8,1-2.5,0.5-3.2,1.8c-0.9,1.3-2.2,0.7-3.4,0.9
	c-0.3,0.2-0.6,0.1-0.7-0.3c-0.4-2.6-2.4-2.2-4.1-2.2c-0.4,0.4-0.7,0.3-0.8-0.2c0-0.4,0-0.8,0-1.2C151.7,9.1,156,10.2,160.3,9.3z"/>
<path class="st31" d="M242.7,7.6c1.6-0.1,3.2-0.1,4.8-0.2c1.1,0.1,2.2,0.2,3.3,0.3c-0.8,0.2-1.6,0.4-2.3,0.6
	C246.5,8.7,244.4,9.8,242.7,7.6z"/>
<path class="st44" d="M147.4,10.5c0.3,0.1,0.5,0.2,0.8,0.2c-1.5,1-3,0.9-4.6,0.2C144.9,10.8,146.1,10.6,147.4,10.5z"/>
<path class="st45" d="M164.1,10.5c0.8,0,1.7,0,2.5,0.1c0,0,0.1,0.3,0.1,0.3c0.8,0.6,1.8-0.2,2.6,0.5c1,0.2,1.4,0.9,1.5,1.9
	c-2.5,0.2-4.9-0.4-7.4,0.3C162,12.1,163.7,11.4,164.1,10.5z"/>
<path class="st46" d="M164.1,10.5c-0.2,1-0.5,2-0.7,3c-2.3-0.7-4.4-2.5-7-1.1c-0.5-0.3-1.7-0.5-0.3-1.1c1.1-0.5,2.3-0.5,3.5-0.8
	C161.1,10.5,162.6,10.5,164.1,10.5z"/>
<path class="st1" d="M152.3,13c0.2,0.1,0.5,0.2,0.7,0.3c-0.9,1.6-2.4,1.4-3.9,1.4c-1.5-1.1-3.5,0-4.9-1.4c1.8-1.2,3.6,0.2,5.4-0.1
	C150.5,13.1,151.4,13,152.3,13z"/>
<path class="st47" d="M245.1,11.4c-1.2-0.2-2.9,0.6-3.1-1.6C243.2,10,244.4,10.2,245.1,11.4z"/>
<path class="st48" d="M277.3,10.7c-0.5-0.2-1.3-0.1-1.4-0.9c0-0.1,0.2-0.2,0.2-0.2C276.9,9.5,277,10.2,277.3,10.7L277.3,10.7z"/>
<path class="st49" d="M169.3,11.3c-0.9,0.1-1.8,0.2-2.6-0.5c1.1-0.3,2.1-1.2,3.2-0.3C169.7,10.8,169.5,11,169.3,11.3z"/>
</svg>
